<svg xmlns="http://www.w3.org/2000/svg" xmlns:xlink="http://www.w3.org/1999/xlink" preserveAspectRatio="xMidYMid"
     width="20" height="20" viewBox="0 0 20 20">
  <defs>
    <style>
      .cls-1 {
      fill: #1693f7;
      fill-rule: evenodd;
      }
    </style>
  </defs>
  <path d="M17.000,5.000 C17.000,5.000 13.939,2.000 14.000,2.000 C14.098,2.000 5.000,2.000 5.000,2.000 L5.000,4.000 L3.000,4.000 L3.000,-0.000 L14.843,-0.000 L19.000,4.157 L19.000,10.832 C18.390,10.477 17.721,10.222 17.000,10.101 L17.000,5.000 ZM4.000,5.000 L4.000,6.000 L1.000,6.000 L1.000,5.000 L4.000,5.000 ZM4.000,10.000 L1.000,10.000 L1.000,9.000 L4.000,9.000 L4.000,10.000 ZM0.000,9.000 L0.000,6.000 L1.000,6.000 L1.000,9.000 L0.000,9.000 ZM8.000,8.000 L6.000,8.000 L6.000,7.000 L8.000,7.000 L8.000,8.000 ZM9.000,9.000 L8.000,9.000 L8.000,8.000 L9.000,8.000 L9.000,9.000 ZM5.000,10.000 L5.000,9.000 L8.000,9.000 L8.000,10.000 L5.000,10.000 ZM5.000,7.000 L5.000,6.000 L6.000,6.000 L6.000,7.000 L5.000,7.000 ZM8.000,5.000 L8.000,6.000 L6.000,6.000 L6.000,5.000 L8.000,5.000 ZM5.000,18.000 L10.367,18.000 C10.633,18.747 11.037,19.422 11.557,20.000 L3.000,20.000 L3.000,12.000 L5.000,12.000 L5.000,18.000 ZM11.106,10.008 L9.009,5.553 L9.894,4.992 L11.500,8.404 L13.106,4.992 L13.991,5.553 L11.894,10.008 L11.106,10.008 ZM15.500,11.000 C17.985,11.000 20.000,13.015 20.000,15.500 C20.000,17.985 17.985,20.000 15.500,20.000 C13.015,20.000 11.000,17.985 11.000,15.500 C11.000,13.015 13.015,11.000 15.500,11.000 ZM15.500,18.875 C17.364,18.875 18.875,17.364 18.875,15.500 C18.875,13.636 17.364,12.125 15.500,12.125 C13.636,12.125 12.125,13.636 12.125,15.500 C12.125,17.364 13.636,18.875 15.500,18.875 ZM13.667,15.002 L15.000,16.334 L15.000,14.000 L16.000,14.000 L16.000,16.334 L17.333,15.002 L17.998,15.667 L15.667,17.998 L15.500,17.831 L15.333,17.998 L13.002,15.667 L13.667,15.002 Z"
        class="cls-1"/>
</svg>
