<?xml version="1.0" encoding="utf-8"?>
<!-- Generator: Adobe Illustrator 19.0.0, SVG Export Plug-In . SVG Version: 6.00 Build 0)  -->
<svg version="1.1" id="NEO__x2B__清数科技_xA0_图像_1_"
	 xmlns="http://www.w3.org/2000/svg" xmlns:xlink="http://www.w3.org/1999/xlink" x="0px" y="0px" viewBox="0 0 429.1 245.5"
	 style="enable-background:new 0 0 429.1 245.5;" xml:space="preserve">
<g>
	<path d="M50.6,50.5c0.1,0,0.2-0.1,0.3-0.1c1,1.6,1.9,3.2,2.9,4.8c3.2,5.2,54.9,87.7,57.5,92c0.4,0.7,0.9,0.9,1.7,0.9
		c6.1,0,12.1,0,18.2,0c2,0,2.2-0.2,2.2-2.2c0-30.7-0.1-101.7-0.1-108.7c0-0.5,0.2-1,0.4-1.3c1.3-1.8,2.8-3,5.2-3
		c2.7,0,5.4-0.5,8.2-0.8c0-3.1,0-6.1,0-9.1c0-1.4-0.4-1.8-1.8-1.8c-3.3,0-6.6,0-9.9,0c-9.8,0-19.5,0-29.3,0c-1.5,0-1.7,0.1-1.7,1.6
		c0,2.7,0,5.5,0,8.2c0,0.8,0.3,1.1,1.1,1.2c1.8,0.1,3.7,0.3,5.5,0.5c2.5,0.3,5.3,0,6.8,2.8c0.3,0.6,0.8,1.4,0.8,2
		c0,24.5,0,49,0,73.6c0,0.4-0.1,0.9-0.2,1.3c-1-1.2-1.7-2.4-2.5-3.6C112.9,103.6,70,35,67.4,31c-1.6-2.4-3-4.9-2.5-8
		c0.2-1.4-0.4-1.8-1.9-1.8c-3.2,0-6.4,0-9.6,0c-9.9,0-19.8,0-29.7,0c-1.5,0-1.7,0.1-1.7,1.7c0,2.7,0,5.5,0,8.2
		c0,0.8,0.2,1.1,1.1,1.2c3.2,0.2,6.5,0.5,9.7,0.7c1.2,0.1,2.9,1.9,2.9,3.2c0,32,0,64,0,96c0,0.3,0,0.8-0.2,1
		c-1.3,1.8-2.6,3.2-5.2,3.4c-2.8,0.1-5.5,0.7-8.4,1.1c0,2.9,0,5.8,0,8.6c0,1.7,0.1,1.8,1.8,1.8c9.1,0,18.2,0,27.3,0
		c3.9,0,7.8,0,11.7,0c1.6,0,1.9-0.3,1.9-2c0-2.4,0-4.8,0-7.2c0-0.4,0-0.8,0-1.2c-3.5-0.5-6.9-0.9-10.3-1.4c-2.1-0.3-3.9-2.4-3.9-4.6
		c0-26.7,0-53.3,0-80C50.6,51.3,50.6,50.9,50.6,50.5z"/>
	<path d="M397.8,89.5c-0.2,2.1-0.4,4.3-0.7,6.4c-1,7.2-2.9,14.2-6.1,20.8c-2.9,6.1-6.7,11.4-11.4,16.3c-3,3.1-6.3,5.6-9.7,8
		c-5.6,4-11.9,6.3-18.5,8.1c-9.5,2.7-19.2,2.4-28.7,0.6c-6.6-1.3-13.2-3.3-18.9-7.1c-3.9-2.5-7.5-5.4-11-8.5c-2.5-2.3-4.7-5-6.6-7.7
		c-4.8-6.7-8.2-14.1-9.9-22.2c-0.8-3.5-1.4-7.2-1.7-10.8c-0.4-4.6-0.7-9.3-0.5-13.9c0.3-8.6,1.9-17.1,5.3-25.1
		c2.4-5.7,5.7-10.9,9.7-15.7c2.5-3,5.6-5.5,8.6-8c4.1-3.5,8.9-5.9,13.9-7.9c15.1-6,30.4-6,45.7-1c5.3,1.7,10.4,4.3,14.8,7.9
		c3,2.4,6,5,8.6,7.8c4.4,4.7,8,10.1,10.7,16c3.7,8.2,5.8,16.8,6.4,25.8c0,0.4,0.1,0.9,0.2,1.3C397.8,83.5,397.8,86.5,397.8,89.5z
		 M369.2,85.5l0-0.3c-0.1-2.3-0.1-4.5-0.4-6.8c-0.4-4.1-0.8-8.1-1.5-12.1c-1.1-6.6-3.3-12.7-6.5-18.6c-2.3-4.2-5.3-7.8-9-10.7
		c-4.3-3.4-9.3-5-14.8-5.1c-7.2-0.2-13.7,1.6-19.1,6.6c-4.9,4.5-8.2,9.9-10.7,16c-2.4,6-3.7,12.2-4.3,18.6
		c-0.9,9.2-0.8,18.4,0.7,27.5c1.3,7.9,3.6,15.3,7.7,22.2c2.7,4.6,6.2,8.4,10.6,11.3c8.5,5.5,21.9,4.6,28.8-1
		c3.3-2.6,6.3-5.5,8.6-9.1c3.1-4.7,5.3-9.8,6.8-15.3c1.3-4.7,2-9.4,2.5-14.2C369,91.9,369.1,86.4,369.2,85.5z"/>
	<path d="M198.1,88.8c0,15.6,0,31.1,0,46.8c0.6,0,26.6,0,39.1,0c1.9,0,3.3-1.1,3.7-3c0.5-2.6,0.8-5.3,1.2-7.9c0.4-2.4,0.7-4.8,1-7.1
		c0.2-1.4,0.5-2.9,0.7-4.4c0.3,0,0.6-0.1,1-0.1c3.7,0,7.4,0,11.1,0c1.4,0,1.8,0.4,1.8,1.8c0,10.5,0,20.9,0,31.4
		c0,1.4-0.4,1.8-1.8,1.8c-31.7,0-63.4,0-95.2,0c-1.5,0-1.7-0.2-1.7-1.7c0-3,0-5.9,0-9c2.5-0.2,5-0.5,7.5-0.7
		c0.9-0.1,1.9-0.1,2.8-0.3c0.6-0.1,1.2-0.4,1.8-0.8c1.7-1.1,2-2.7,2-4.7c-0.1-31.3,0-62.6,0-94c0-2.1-1.8-4-3.9-4.1
		c-3-0.2-6.1-0.5-9.1-0.7c-0.7-0.1-1-0.3-1-1c0-2.9,0-5.7,0-8.6c0-0.9,0.5-1.3,1.3-1.3c0.3,0,0.6,0,0.8,0c29.4,0,58.9,0,88.3,0
		c2.1,0,2.2,0.2,2.2,2.3c0,8.9,0,17.9,0,26.8c0,1.8-0.2,2-2,2c-3.9,0-7.9,0-11.9,0c-0.8-4.5-2.3-12.7-3-16.2
		c-0.3-1.5-1.8-2.7-3.4-2.7c-10.6,0-21.2,0-31.8,0c-0.5,0-1,0-1.5,0c0,14.2,0,28.3,0,42.6c0.5,0,14.4,0,20.9,0c1.6,0,3.5-1.5,3.7-3
		c0.4-2.6,0.7-5.2,1-7.8c0.2-1.7,0.5-3.4,0.8-5.2c3.7,0,7.3,0,10.9,0.1c0.4,0,0.8,0.7,1.2,1.1c0.1,0.2,0,0.5,0,0.8
		c0,13.7,0,27.3,0,41c0,1.7-0.3,2.1-2,2.1c-2.9,0-5.9,0-8.8,0c-1.1,0-1.5-0.4-1.6-1.4c-0.5-3.8-0.9-7.7-1.5-11.5
		c-0.2-1.6-2.1-3.1-3.7-3.1C212.6,88.8,198.7,88.8,198.1,88.8z"/>
	<path d="M124.9,202.6c2.6,0,5,0,7.4,0c0.9,0,1.4-0.2,1.6-1.2c0.3-1.1,0.7-2.2,1-3.2c1.8,0.3,3.4,0.6,5.1,0.9
		c0.3,0.1,0.7,0.3,0.7,0.5c0,0.2-0.3,0.5-0.5,0.8c-0.6,0.6-1.2,1.2-2,2c3.8,0,7.3,0,11.2,0c-1.2,3.5-2.3,6.9-3.5,10.6
		c1.3,0.6,2.7,1.3,4.3,2.1c-0.8,1.1-1.5,2.1-2.3,3.1c3.7-1.2,7-3.1,9.4-6.4c-2.6-4.8-2.8-10.2-3.3-15.7c-1.2,1.7-2.2,3.3-3.3,5
		c-1.1-1.3-2.1-2.3-3.1-3.4c-1.2,0.9-1.1,0.8-2.2-0.5c-1.2-1.5-2.6-2.8-4-4.3c0.9-0.8,1.9-1.6,3-2.5c1.7,1.6,3.3,3.1,4.9,4.6
		c2.5-2.6,5.1-10.8,6.6-20.6c0.8,0.2,1.6,0.4,2.4,0.5c1.1,0.2,2.2,0.3,3.3,0.6c0.9,0.2,1.1,0.8,0.5,1.2c-1.5,1.1-1.6,2.8-2.2,4.3
		c-0.3,0.7-0.4,1.5-0.6,2.3c4.2,0,8.4,0,12.6,0c0,1.4,0,2.9,0,4.6c-1.2-0.1-2.3-0.1-3.6-0.2c-0.2,1.8-0.3,3.5-0.5,5.2
		c-0.6,5.4-1.4,10.8-3.3,15.9c-0.2,0.4-0.3,0.8-0.5,1.2c-1,2.2-0.9,2.8,1.2,4.1c2,1.2,4.2,2,6.3,3c0.5,0.2,0.9,0.4,1.3,0.5
		c-1.1,1.9-2.1,3.8-3.2,5.9c-3.2-2.1-6.5-4.3-9.3-7.1c-3.6,3.3-7.6,6.2-12.3,8c-1.2-1.4-2.3-2.8-3.6-4.3c1-0.3,1.9-0.7,3.2-1.1
		c-1.4-0.7-2.5-1.3-3.7-1.8c-0.3-0.1-0.7,0-1,0.2c-2.1,1.2-4,2.7-6.2,3.6c-2.7,1.1-5.6,1.8-8.4,2.7c-0.7,0.2-1,0-1.4-0.5
		c-0.9-1.2-1.9-2.4-2.8-3.6c-0.2-0.2-0.3-0.4-0.5-0.8c5.2-0.3,10.3-0.5,14.7-3.7c-2.5-0.5-5-0.9-7.5-1.4c-1.3-0.2-1.5-0.5-0.9-1.7
		c0.6-1.3,1.3-2.5,1.9-3.8c0.2-0.4,0.3-0.9,0.6-1.5c-2.2,0.1-4.2,0.2-6.2,0.4c-0.7,0.1-1.1,0-1-0.8
		C125,204.8,124.9,203.7,124.9,202.6z M163.6,187.4c-1.9,0-3.6,0-5.4,0c-0.2,0-0.6,0.2-0.7,0.5c-0.9,2.1-1.7,4.2-2.5,6.3
		c0.6,0,1.2,0.1,1.8,0c1-0.1,1.2,0.2,1.3,1.2c0.1,2.1,0.2,4.3,0.5,6.4c0.2,1.7,0.7,3.4,1.1,5.2c0.1,0,0.3,0,0.4,0
		C162.4,200.7,163.3,194.2,163.6,187.4z M143.6,206.5c-2.4,0-4.4,0-6.4,0c-0.3,0-0.7,0.2-0.8,0.5c-0.6,1.1-1,2.2-1.6,3.4
		c1.8,0.3,3.6,0.6,5.3,1c1.2,0.3,1.9,0,2.3-1.1C142.7,209.1,143.1,207.9,143.6,206.5z"/>
	<path d="M354.8,194c3.8,0.1,7.5,0.3,11.2,0.4c0-2.6,0-5.2,0-7.7c-3.9,0-7.7,0-11.6,0c0-1.6,0-3.2,0-5.1c3.9,0.1,7.7,0.3,11.8,0.4
		c-0.2-2.6-0.3-5.1-0.5-7.7c0.2,0,0.5-0.1,0.8,0c1.6,0.1,3.2,0.2,4.8,0.3c0.4,0,0.7,0.3,1,0.4c-0.2,0.3-0.4,0.6-0.5,0.9
		c-0.2,0.5-0.6,1-0.7,1.5c-0.1,1.5,0,3,0,4.5c0.3,0,0.6,0.1,0.9,0.1c3.5-0.1,6.9-0.2,10.4-0.4c0.8,0,1.2,0.1,1.1,1
		c0,1.4,0,2.7,0,4.1c-4.2,0-8.2,0-12.3,0c0,2.4,0,4.9,0,7.7c3.1-0.2,6.3-0.4,9.9-0.6c-1.4,3.6-2.6,6.9-3.9,10.1
		c-1.3,3.2-3.2,5.9-5.4,8.5c-0.7,0.8-0.5,1.2,0.3,1.7c3.5,2.1,7.4,3.4,11.4,4.1c0.6,0.1,1.2,0.2,1.8,0.4c-1,2.2-2,4.3-2.9,6.4
		c-5.7-1.2-10.3-4.5-14.7-7.9c-3.5,2.4-6.8,4.8-10.3,7.1c-2,1.3-2,1.2-3.6-0.5c-0.6-0.6-1.4-1.1-2-1.7c-0.3-0.2-0.5-0.6-0.7-0.8
		c0.3-0.2,0.6-0.5,0.9-0.6c4.2-1.3,8-3.4,11.4-6.3c0.2-0.2,0.5-0.4,0.8-0.7c-0.4-0.7-0.7-1.3-1.1-1.8c-2.3-3.4-3.6-7.2-4.7-11.1
		c-0.4-1.3-0.9-1.7-2.2-1.5c-1.5,0.2-1.5,0.1-1.5-1.4C354.8,196.6,354.8,195.4,354.8,194z M363,199c1.1,3.9,2.4,7.5,4.8,10.8
		c2.9-3.2,5.1-6.7,6.5-10.8C370.4,199,366.8,199,363,199z"/>
	<path d="M239.4,195c-2.9,0-5.5,0-8.3,0c0-1.5,0-3,0-4.5c2.6,0.1,5.2,0.2,7.8,0.4c1.1,0.1,1.4-0.3,1.3-1.4c-0.1-2.1,0-4.2,0-6.5
		c-2.3,0.4-4.1,0.7-6.1,1.1c-0.5-1.5-1.1-3-1.7-4.6c6.2-0.6,12.1-1.9,17.8-4.1c1.2,1.8,2.3,3.6,3.6,5.6c-0.5,0-0.8,0.2-1.2,0.1
		c-2.6-0.4-5.1,0.4-7.6,0.9c-0.2,0-0.5,0.4-0.5,0.7c0,2.7,0,5.4,0,8.2c2.2-0.1,4.3-0.2,6.4-0.4c0.8-0.1,1.1,0.1,1.1,0.9
		c0,1.2,0,2.5,0,3.7c-2.6,0-4.9,0-7.4,0c0,1.6,0,3.3,0,5.2c0.9-0.7,1.8-1.4,2.7-2.1c1.5,1.8,3,3.5,4.5,5.3c0.4,0.5,0.4,0.8-0.1,1.3
		c-1.1,0.8-2,1.7-3.1,2.7c-1.3-2.2-2.5-4.3-3.6-6.3c-0.1,0-0.3,0.1-0.4,0.1c0,0.4,0,0.7,0,1.1c0.1,7.1,0.3,14.2,0.4,21.3
		c0,0.6-0.1,0.9-0.8,0.9c-1.4,0-2.9,0-4.5,0c0.4-7.1,0.8-14.2,0.1-21.2c-1.9,4.5-4.7,8.4-7.5,12.6c-1.1-1.5-2-2.9-2.9-4.3
		c-0.1-0.2,0.1-0.7,0.4-0.9c3.7-3.6,6.1-8,8.4-12.5C238.8,197.1,239.1,196,239.4,195z"/>
	<path d="M45,192.9c0-1.1,0-2.1,0-3c-2.3,0-4.5,0-6.8,0c-1.1,0-2.2,0.1-3.4,0.3c-0.7,0.1-0.9-0.1-0.9-0.8c0-1.2,0-2.5,0-3.9
		c3.7,0.2,7.3,0.4,11,0.5c0-1.2,0-2.3,0-3.3c-2.3,0-4.5,0-6.7,0c-1.7,0-3.4,0.2-5.1,0.3c-0.3,0-0.9-0.4-0.9-0.6
		c-0.1-1.4,0-2.9,0-4.3c4.3,0.2,8.4,0.4,12.8,0.6c0-1.6,0-3.1,0-4.6c1.7,0,3.3,0,4.8,0c0.6,0,0.8,0.3,0.5,1c-0.4,1-0.6,2.1-1.1,3.6
		c5-0.2,9.5-0.4,14.3-0.6c0,1.5,0,3,0,4.4c0,0.2-0.7,0.5-1,0.5c-3.9-0.1-7.9-0.3-11.8-0.5c-0.3,0-0.6,0-0.9,0c0,1.1,0,2.1,0,3.4
		c3.9-0.2,7.9-0.4,12-0.5c0,1.5,0,2.9,0,4.2c0,0.2-0.6,0.5-1,0.5c-3.4-0.1-6.8-0.3-10.2-0.5c-0.2,0-0.5,0-0.8,0c0,1.1,0,2.1,0,3.2
		c0.5,0,0.9,0,1.3,0c4.4-0.2,8.7-0.4,13.1-0.5c0.3,0,0.8,0.4,0.8,0.6c0.1,1.3,0,2.6,0,3.9c-11.8,0-23.4,0-35.2,0c0-1.2,0-2.6,0-3.9
		c0-0.2,0.7-0.5,1-0.5c4.5,0.1,8.9,0.4,13.4,0.5C44.5,193,44.7,192.9,45,192.9z"/>
	<path d="M39.5,216.4c0,2.4,0,4.7,0,7c0,0.8-0.2,1.2-1.1,1.1c-1-0.1-2,0-3,0c-0.7,0-1.3-0.1-0.8-1c0.1-0.1,0.1-0.3,0.1-0.5
		c0.1-6.9,0.2-13.9,0.2-20.8c0-0.7-0.1-1.4-0.2-2.1c-0.1-0.7,0.2-0.9,1-0.9c7.3,0.1,14.6,0.1,21.9,0.1c0.4,0,0.8,0,1.2-0.1
		c1.1-0.2,1.4,0.1,1.4,1.3c-0.1,6.3-0.1,12.5-0.1,18.8c0,0.5,0,1,0,1.6c-0.1,1.6-0.8,2.8-2.3,3.3c-1.8,0.5-3.7,0.9-5.6,1.4
		c-0.7-2-1.3-3.8-2-5.7c0.5,0,1-0.1,1.4-0.1c0.3,0,0.6,0,1,0c3.5-0.1,3-0.6,2.9-3.3C50.2,216.4,44.9,216.4,39.5,216.4z M55.4,203.1
		c-5.3,0-10.6,0-15.8,0c0,1.1,0,2.1,0,3.1c5.3,0,10.5,0,15.8,0C55.4,205.1,55.4,204.1,55.4,203.1z M55.4,209.8c-5.3,0-10.6,0-15.8,0
		c0,0.9,0,1.8,0,2.6c5.3,0,10.5,0,15.8,0C55.4,211.5,55.4,210.7,55.4,209.8z"/>
	<path d="M343.2,174.5c1.9,0,3.9,0,5.9,0c0.3,0,0.8,0.3,0.9,0.5c0.1,0.3-0.1,0.9-0.4,1c-1.2,0.9-1.3,2-1.3,3.3c0.1,2,0,4.1,0,6.3
		c1.3-0.1,2.6-0.2,3.8-0.3c0.3,0,0.9,0.3,0.9,0.5c0.1,1.6,0,3.2,0,5c-1.6-0.1-3.1-0.2-4.6-0.4c0,3,0,5.8,0,8.9
		c1.8-0.6,3.5-1.2,5.2-1.7c0.2,1.5,0.4,2.9,0.6,4.3c0,0.2-0.4,0.5-0.7,0.6c-1.3,0.4-2.7,0.8-4.1,1.1c-0.9,0.2-1.1,0.7-1.1,1.6
		c0,4.6,0,9.2,0,13.7c0,3.3-0.6,4-3.8,4.9c-1.5,0.4-3.1,0.7-4.7,1c-0.3,0-0.8-0.1-0.9-0.3c-0.9-1.8-1.6-3.7-2.4-5.6
		c0-0.1,0-0.2,0.1-0.4c0.8,0,1.5,0.1,2.3,0.1c1.2,0,2.3-0.1,3.5-0.3c0.4-0.1,1.1-0.7,1.1-1.1c0.1-3.7,0.1-7.3,0.1-11.3
		c-2.3,1-4.4,2-6.6,2.9c-0.4-2-0.9-3.9-1.2-5.8c0-0.2,0.6-0.6,1-0.7c1.9-0.5,3.9-0.9,5.9-1.3c0.7-0.1,1-0.4,1-1.2c0-2.8,0-5.5,0-8.3
		c0-0.8-0.3-1.2-1.1-1.1c-1.8,0.2-3.6,0.2-5.4,0.4c-0.5,0-1,0.1-1-0.6c0-1.6,0-3.2,0-4.9c2.5,0.1,4.9,0.3,7.6,0.4
		C343.5,181.9,343.3,178.2,343.2,174.5z"/>
	<path d="M267.3,209.3c-5.1,0.8-9.9,1.6-14.9,2.4c-0.2-1.5-0.4-3.2-0.6-4.8c2.9-0.3,5.5-0.6,8.2-0.9c2.3-0.3,4.6-0.8,6.8-1.2
		c0.8-0.1,0.7-0.7,0.7-1.2c0-3.7,0-7.5,0-11.2c0-1.9,0.1-3.8,0-5.7c-0.2-3.5-0.5-6.9-0.7-10.3c0-0.4,0-0.8,0-1.1
		c2,0.1,4,0.2,5.9,0.4c0.3,0,0.7,0.3,1,0.5c-0.2,0.3-0.4,0.6-0.6,0.9c-0.3,0.6-0.9,1.2-0.9,1.8c-0.1,8.2,0,16.5,0,24.7
		c0,0.2,0,0.3,0.1,0.6c2.1-0.4,4.1-0.9,6.4-1.4c0.2,1.6,0.4,3.2,0.5,4.8c0,0.2-0.6,0.6-1,0.6c-1.9,0.2-3.9,0.3-5.9,0.5
		c0,3.5,0,6.9,0,10.3c0,1.8,0.2,3.5,0.3,5.3c0.1,0.7-0.2,1-0.9,1c-1.2,0-2.3,0-3.5,0c-0.9,0-1.1-0.3-1.1-1.1
		c0.2-4.3,0.3-8.5,0.5-12.8C267.5,210.7,267.4,210.1,267.3,209.3z"/>
	<path d="M140.7,188.8c0,3.2,0,6.2,0,9.2c-1.5,0-3.1,0-4.8,0c0-2.3,0-4.5,0-7c-0.3,0.5-0.5,0.8-0.7,1.2c-1.9,3.2-4.2,6-7.3,8.2
		c-0.6,0.4-1,0.5-1.6-0.1c-0.8-0.8-1.7-1.4-2.6-2.2c-0.3-0.2-0.6-0.5-0.6-0.9c0-0.1,0.4-0.5,0.7-0.6c3.4-1.5,6.3-3.6,8.7-6.5
		c0.2-0.3,0.4-0.6,0.7-1.2c-2.4,0.1-4.6,0.1-6.7,0.4c-0.8,0.1-1.1,0-1.1-0.7c0-1.2,0-2.3,0-3.5c3.5,0,7,0,10.4,0c0-3.5,0-7,0-10.5
		c1.7,0,3.5,0,5.2,0c0.2,0,0.5,0.3,0.6,0.5c0,0.2-0.1,0.6-0.3,0.7c-0.8,0.4-0.8,1-0.8,1.7c0,2.5,0,5,0,7.5c3.3,0,6.6,0,10,0
		c0,1.2,0,2.4,0,3.6c0,0.2-0.6,0.6-0.9,0.6C146.7,189.2,143.7,189,140.7,188.8z"/>
	<path d="M24,202.4c1.6,1.2,3.1,2.3,4.5,3.3c-2,6.2-4.1,12.4-6.1,18.6c-1.9-1.4-3.7-2.7-5.6-4C20.5,214.9,22.3,208.7,24,202.4z"/>
	<path d="M22.7,175.4c2.9,2.3,5.7,4.6,8.6,6.9c-1.3,1.6-2.4,2.9-3.5,4.3c-2.7-2.5-5.3-5-8-7.6C20.6,178,21.6,176.8,22.7,175.4z"/>
	<path d="M25.5,199.3c-1.6-1.3-2.9-2.5-4.3-3.5c-1.1-0.8-2.2-1.5-3.4-2.1c-0.7-0.4-0.8-0.7-0.4-1.4c0.6-1,1.2-2.1,1.9-3.1
		c0.1-0.2,0.7-0.3,0.9-0.1c2.5,1.6,4.9,3.3,7.3,5c0.2,0.2,0.4,0.3,0.8,0.6C27.3,196.1,26.4,197.7,25.5,199.3z"/>
	<path d="M260.6,191.1c-1.7-2.6-3.2-4.9-4.7-7.3c-0.1-0.2,0.1-0.8,0.3-1c0.8-0.7,1.6-1.3,2.5-1.8c0.3-0.2,1-0.1,1.2,0.1
		c1.5,2,3,4.1,4.4,6.1c0.5,0.7,0.5,1.1-0.3,1.6C262.8,189.5,261.7,190.3,260.6,191.1z"/>
	<path d="M263.7,200.6c-1.4,1-2.7,2-4.2,3.1c-0.1-0.2-0.3-0.4-0.4-0.6c-1.3-2.2-2.6-4.5-3.9-6.7c-0.3-0.5-0.3-0.9,0.3-1.3
		c1.1-0.5,2.1-1.1,3.3-1.8C260.4,195.8,262,198.1,263.7,200.6z"/>
	<path d="M150.5,178.1c-2.6,1.3-3,3.8-4.2,5.8c-1.1-0.1-2.3-0.2-3.4-0.4c-0.2,0-0.5-0.7-0.4-0.9c0.6-1.8,1.3-3.5,2-5.2
		c0.2-0.6,0.4-0.9,1.2-0.7c1.2,0.4,2.4,0.6,3.6,0.9C149.6,177.6,149.9,177.8,150.5,178.1z"/>
	<path d="M127.9,177.5c1.4-0.2,2.8-0.4,4.2-0.5c0.2,0,0.5,0.3,0.5,0.5c0.4,1.8,0.7,3.6,1.1,5.5c-1.8,0.2-3.4,0.5-5,0.7
		C128.5,181.6,128.2,179.7,127.9,177.5z"/>
</g>
</svg>
