<?xml version="1.0" encoding="utf-8"?>
<!-- Generator: Adobe Illustrator 19.0.0, SVG Export Plug-In . SVG Version: 6.00 Build 0)  -->
<svg version="1.1" id="图层_1" xmlns="http://www.w3.org/2000/svg" xmlns:xlink="http://www.w3.org/1999/xlink" x="0px" y="0px"
	 viewBox="5 14 109 73" style="enable-background:new 5 14 109 73;" xml:space="preserve">
<style type="text/css">
	.st0{fill:#3486C8;}
</style>
<g id="XMLID_1_">
	<path id="XMLID_2_" class="st0" d="M27.8,34c0.9,0.1,1.6,0.1,2.2,0.1s1.2,0,1.6,0s0.9,0,1.4,0c0.6,0,1.3-0.1,2.2-0.1l13.2,17.8
		V38.9c0-1.6-0.2-2.6-0.6-3c-0.4-0.4-1.3-0.6-2.7-0.6V34c0.9,0.1,1.7,0.1,2.3,0.1c0.7,0,1.2,0,1.8,0c0.3,0,0.7,0,1.2,0
		s1.3-0.1,2.3-0.1v1.3c-1.2,0-2,0.2-2.4,0.6c-0.4,0.3-0.5,1.3-0.5,3v10c0,2.1,0,3.9,0,5.4s0,2.9-0.1,4.4l-1.8-0.2L32.3,37.2v16.3
		c0,1.7,0.2,2.7,0.6,3c0.4,0.3,1.3,0.5,2.7,0.5v1.3c-1-0.1-1.8-0.1-2.4-0.1s-1.1,0-1.6,0c-0.3,0-0.6,0-1.1,0s-1.3,0.1-2.5,0.1V57
		c1.3,0,2.1-0.2,2.5-0.6c0.4-0.4,0.6-1.4,0.6-3V38.2c0-1.3-0.2-2.1-0.5-2.4c-0.3-0.3-1.1-0.5-2.3-0.5H28L27.8,34z"/>
	<path id="XMLID_4_" class="st0" d="M74.3,33.9c0,0.8,0.1,1.7,0.1,2.7c0.1,1,0.1,2.3,0.2,3.8h-1.1c-0.2-2-0.7-3.3-1.5-4
		c-0.8-0.7-2.3-1-4.5-1h-5.2v9.5h2.4c1.5,0,2.5-0.2,2.9-0.7c0.4-0.4,0.6-1.5,0.7-3.1h1.1c0,0.3,0,0.8,0,1.4
		c-0.1,1.6-0.1,2.6-0.1,3.2c0,0.9,0,2.3,0.1,4.4c0,0.3,0,0.5,0,0.7h-1.1c-0.1-1.9-0.4-3.1-0.8-3.7c-0.4-0.6-1.4-0.8-2.8-0.8h-2.4
		v10.8h6.4c2.3,0,3.8-0.4,4.7-1.2c0.8-0.8,1.3-2.3,1.5-4.6H76c-0.1,1.3-0.2,2.6-0.3,3.8c-0.1,1.2-0.1,2.3-0.2,3.3H55.2v-1.3
		c1.2,0,2-0.2,2.3-0.5s0.5-1.1,0.5-2.4v-16c0-1.3-0.2-2-0.5-2.4c-0.3-0.3-1.1-0.5-2.3-0.5V34h4.3c3.1,0,5.8,0,8.3,0
		S72.4,33.9,74.3,33.9z"/>
	<path id="XMLID_6_" class="st0" d="M90.6,33.7c3.6,0,6.4,1.2,8.6,3.5s3.3,5.3,3.3,9.1c0,3.6-1.1,6.6-3.4,9s-5.2,3.5-8.6,3.5
		c-3.5,0-6.4-1.1-8.6-3.4c-2.2-2.3-3.3-5.3-3.3-8.9c0-3.7,1.1-6.8,3.4-9.1C84.2,34.9,87.1,33.7,90.6,33.7z M90.5,35.1
		c-2.2,0-3.9,1-5.2,3c-1.3,2-1.9,4.7-1.9,8.2s0.6,6.3,1.9,8.2c1.3,2,3.1,3,5.4,3c2.2,0,3.9-1,5.2-3c1.3-2,1.9-4.7,1.9-8.2
		s-0.7-6.2-2-8.2C94.6,36.1,92.8,35.1,90.5,35.1z"/>
</g>
<g>
	<path id="XMLID_10_" class="st0" d="M29.2,66.5c0.1,0,0.3,0,0.5,0c0.5,0,0.9,0,1.1,0s0.7,0,1.3,0c0.2,0,0.3,0,0.4,0v0.4
		c-0.4,0-0.7,0.1-0.8,0.2c-0.1,0.1-0.2,0.4-0.2,0.8v5.2c0,0.4,0.1,0.7,0.2,0.8s0.4,0.1,0.8,0.1v0.4c-0.5,0-0.8,0-1,0s-0.4,0-0.6,0
		s-0.4,0-0.6,0s-0.6,0-1.1,0V74c0.4,0,0.7-0.1,0.8-0.2c0.1-0.1,0.2-0.4,0.2-0.8v-5.2c0-0.4-0.1-0.7-0.2-0.8s-0.4,0-0.8,0V66.5z"/>
	<path id="XMLID_12_" class="st0" d="M33.3,66.5c0.3,0,0.5,0,0.7,0s0.4,0,0.5,0s0.3,0,0.5,0s0.4,0,0.7,0l4.3,5.8v-4.2
		c0-0.5-0.1-0.8-0.2-1C39.7,67,39.4,67,39,67v-0.4c0.3,0,0.5,0,0.8,0c0.2,0,0.4,0,0.6,0c0.1,0,0.2,0,0.4,0s0.4,0,0.7,0V67
		c-0.4,0-0.6,0.1-0.8,0.2c-0.1,0.1-0.2,0.4-0.2,1v3.2c0,0.7,0,1.3,0,1.7c0,0.5,0,0.9,0,1.4l-0.6-0.1l-5.1-6.9v5.3
		c0,0.5,0.1,0.9,0.2,1c0.1,0.1,0.4,0.2,0.9,0.2v0.4c-0.3,0-0.6,0-0.8,0s-0.4,0-0.5,0s-0.2,0-0.4,0c-0.2,0-0.4,0-0.8,0V74
		c0.4,0,0.7-0.1,0.8-0.2c0.1-0.1,0.2-0.4,0.2-1v-5c0-0.4-0.1-0.7-0.2-0.8c-0.1,0-0.4,0-0.8,0h-0.1V66.5z"/>
	<path id="XMLID_14_" class="st0" d="M48.6,67.4l0.1-0.5h0.4c0,0.1,0,0.1,0,0.2c0,0.6,0,1,0,1.2c0,0.1,0,0.4,0,0.8
		c0,0.2,0,0.3,0,0.4h-0.4c-0.1-0.8-0.3-1.5-0.7-1.9c-0.4-0.5-1-0.7-1.6-0.7c-0.8,0-1.5,0.3-1.9,0.9s-0.6,1.5-0.6,2.6
		s0.2,2.1,0.7,2.7c0.5,0.6,1.1,0.9,2,0.9c0.6,0,1.1-0.2,1.5-0.5c0.4-0.3,0.7-0.7,0.8-1.3h0.4c-0.1,0.7-0.4,1.3-1,1.7
		c-0.6,0.4-1.2,0.6-2.1,0.6c-1.2,0-2.1-0.4-2.8-1.1c-0.7-0.7-1.1-1.7-1.1-2.9c0-1.2,0.4-2.2,1.1-3c0.7-0.8,1.7-1.1,2.8-1.1
		c0.5,0,0.9,0.1,1.4,0.3S48.3,67.1,48.6,67.4z"/>
	<path id="XMLID_16_" class="st0" d="M61.2,68.6h-0.3c-0.1-0.6-0.3-1.1-0.5-1.3c-0.2-0.2-0.6-0.3-1.2-0.3h-1v6
		c0,0.4,0.1,0.7,0.2,0.8c0.2,0.1,0.4,0.2,0.8,0.2h0.2v0.5c-0.6,0-0.9,0-1.2,0c-0.2,0-0.4,0-0.6,0s-0.5,0-0.8,0c-0.3,0-0.6,0-0.9,0
		v-0.4H56c0.4,0,0.7-0.1,0.8-0.2c0.1-0.1,0.2-0.4,0.2-0.8V67h-0.9c-0.6,0-1,0.1-1.2,0.3c-0.2,0.2-0.4,0.7-0.5,1.3H54l0.2-2.1h6.9
		L61.2,68.6z"/>
	<path id="XMLID_18_" class="st0" d="M53.3,67c-0.4,0-0.7-0.1-0.8,0s-0.2,0.4-0.2,0.8V73c0,0.4,0.1,0.7,0.2,0.8
		c0.1,0.1,0.4,0.2,0.8,0.2v0.4c-0.5,0-0.9,0-1.1,0s-0.4,0-0.6,0c-0.2,0-0.4,0-0.6,0s-0.5,0-1,0V74c0.4,0,0.7,0,0.8-0.1
		c0.1-0.1,0.2-0.4,0.2-0.8v-5.2c0-0.4-0.1-0.7-0.2-0.8s-0.4-0.2-0.8-0.2v-0.4c0.1,0,0.2,0,0.4,0c0.6,0,1.1,0,1.3,0
		c0.2,0,0.6,0,1.1,0c0.2,0,0.4,0,0.5,0V67z"/>
	<path id="XMLID_20_" class="st0" d="M68.4,66.5c0,0.3,0,0.5,0,0.9s0,0.7,0.1,1.2h-0.4c-0.1-0.6-0.2-1.1-0.5-1.3S66.9,67,66.2,67
		h-1.7v3h0.8c0.5,0,0.8-0.1,0.9-0.2c0.1-0.1,0.2-0.5,0.2-1h0.4c0,0.1,0,0.3,0,0.5c0,0.5,0,0.9,0,1c0,0.3,0,0.8,0,1.4
		c0,0.1,0,0.2,0,0.2h-0.4c0-0.6-0.1-1-0.3-1.2c-0.1-0.2-0.4-0.3-0.9-0.3h-0.8V74h2.1c0.7,0,1.2-0.1,1.5-0.4c0.3-0.3,0.4-0.7,0.5-1.5
		H69c0,0.4-0.1,0.8-0.1,1.2c0,0.4,0,0.7-0.1,1.1h-6.6V74c0.4,0,0.6-0.1,0.8-0.2c0.1-0.1,0.2-0.4,0.2-0.8v-5.2c0-0.4-0.1-0.7-0.2-0.8
		c-0.1,0-0.4,0-0.8,0v-0.4h1.4c1,0,1.9,0,2.7,0C67.1,66.5,67.8,66.5,68.4,66.5z"/>
	<path id="XMLID_22_" class="st0" d="M73.2,66.5c0.2,0,0.3,0,0.5,0s0.5,0,0.8,0c0.2,0,0.5,0,1,0s0.8,0,1.1,0c1.3,0,2.4,0.4,3.1,1.1
		s1.1,1.7,1.1,2.9c0,1.3-0.4,2.2-1.1,2.9s-1.7,1-3.1,1c-0.2,0-0.6,0-1,0s-0.8,0-1.1,0c-0.3,0-0.5,0-0.7,0s-0.5,0-0.7,0V74
		c0.4,0,0.6-0.1,0.8-0.2c0.1-0.1,0.2-0.4,0.2-0.8v-5.2c0-0.4-0.1-0.7-0.2-0.8c-0.1,0-0.3,0-0.7,0V66.5z M75.5,67v7h0.8
		c0.5,0,0.8,0,1.1-0.1c0.3-0.1,0.5-0.1,0.7-0.3c0.4-0.2,0.7-0.6,1-1.2c0.2-0.5,0.3-1.2,0.3-2c0-1.2-0.2-2.1-0.7-2.7
		c-0.5-0.5-1.3-0.8-2.5-0.8L75.5,67L75.5,67z"/>
	<path id="XMLID_25_" class="st0" d="M84.6,66.4h0.6l2.5,7c0.1,0.2,0.2,0.4,0.3,0.5c0.1,0.1,0.3,0.1,0.5,0.1v0.4c-0.5,0-0.8,0-1,0
		s-0.4,0-0.5,0c-0.2,0-0.4,0-0.6,0s-0.6,0-1,0V74c0.3,0,0.5,0,0.6-0.1s0.2-0.2,0.2-0.3c0-0.1,0-0.1,0-0.1v-0.1l-0.6-1.7h-2.3
		L82.8,73c0,0,0,0,0,0.1c-0.1,0.3-0.2,0.5-0.2,0.6c0,0.2,0,0.3,0.1,0.3c0.1,0.1,0.3,0.1,0.5,0.1v0.4c-0.2,0-0.4,0-0.6,0
		s-0.3,0-0.5,0c-0.1,0-0.3,0-0.4,0c-0.2,0-0.4,0-0.6,0V74c0.2,0,0.4,0,0.5-0.1s0.2-0.2,0.3-0.5L84.6,66.4z M84.4,68.2l-1.1,2.9h2
		L84.4,68.2z"/>
	<path id="XMLID_28_" class="st0" d="M88.8,66.5h6.9l0.2,2.1h-0.4c-0.1-0.6-0.3-1.1-0.5-1.3c-0.2-0.2-0.6-0.3-1.2-0.3H93v6.1
		c0,0.4,0.1,0.7,0.2,0.8c0.1,0.1,0.4,0.2,0.8,0.2l0,0v0.4c-0.3,0-0.6,0-0.9,0s-0.6,0-0.8,0c-0.2,0-0.4,0-0.6,0c-0.3,0-0.6,0-1.2,0
		V74h0.1c0.4,0,0.6-0.1,0.8-0.2c0.1-0.1,0.2-0.4,0.2-0.8v-6h-0.9c-0.6,0-1,0.1-1.2,0.3C89.2,67.6,89,68,89,68.6h-0.3L88.8,66.5z"/>
	<path id="XMLID_30_" class="st0" d="M99.4,66.4h0.6l2.5,7c0.1,0.2,0.2,0.4,0.3,0.5c0.1,0.1,0.3,0.1,0.5,0.1v0.4c-0.5,0-0.8,0-1,0
		s-0.4,0-0.5,0c-0.2,0-0.4,0-0.6,0s-0.6,0-1,0V74c0.3,0,0.5,0,0.6-0.1s0.2-0.2,0.2-0.3c0-0.1,0-0.1,0-0.1v-0.1l-0.6-1.7H98L97.5,73
		c0,0,0,0,0,0.1c-0.1,0.3-0.2,0.5-0.2,0.6c0,0.2,0,0.3,0.1,0.3c0.1,0.1,0.3,0.1,0.5,0.1v0.4c-0.2,0-0.4,0-0.6,0s-0.3,0-0.5,0
		c-0.1,0-0.3,0-0.4,0c-0.2,0-0.4,0-0.6,0V74c0.2,0,0.4,0,0.5-0.1s0.2-0.2,0.3-0.5L99.4,66.4z M99.2,68.2l-1.1,2.9h2L99.2,68.2z"/>
</g>
</svg>
